v -0.404079 -0.770079 -0.493658 
vn -0.666667 -0.333333 -0.666667 
v 0.397677 -0.609377 -0.493658 
vn 0.408248 0.408248 -0.816497 
v 0.397677 -0.770079 -0.493658 
vn 0.92686 -0.338351 -0.16263 
v -0.404079 -0.609377 -0.493658 
vn -0.666667 0.666667 -0.333333 
v 0.397677 -0.609377 -0.480014 
vn 0.559892 0.823043 0.0955028 
v 0.397677 -0.646341 -0.378162 
vn 0.702015 0.695579 0.152793 
v -0.404079 -0.770079 0.362082 
vn -0.903721 -0.417188 0.0961389 
v 0.397677 -0.770079 0.362082 
vn 0.548205 -0.756396 0.356842 
v -0.404079 -0.646341 -0.378162 
vn -0.80405 0.590965 0.0653035 
v -0.404079 -0.609377 -0.480014 
vn -0.320092 0.92187 0.218397 
v -0.404079 -0.641047 0.272418 
vn -0.780292 0.49822 -0.37805 
v -0.404079 -0.570078 0.29288 
vn -0.715698 0.0878358 -0.692864 
v -0.404079 -0.325876 0.335032 
vn -0.859308 0.451762 0.239794 
v -0.404079 -0.384118 0.424456 
vn -0.897707 0.316484 0.306531 
v -0.404079 -0.724117 0.417514 
vn -0.449636 -0.616878 0.645979 
v -0.404079 -0.669029 0.459062 
vn -0.709332 -0.330087 0.622809 
v -0.404079 -0.458502 0.47636 
vn -0.714002 0.317395 0.624068 
v -0.404079 -0.609031 0.48501 
vn -0.557742 -0.18936 0.808126 
v -0.404079 -0.548326 0.493658 
vn -0.319734 0.0758301 0.944468 
v -0.404079 -0.326578 -0.283134 
vn -0.89494 -0.416428 -0.160218 
v -0.404079 -0.12605 -0.269978 
vn -0.715751 0.243328 0.654593 
v -0.404079 -0.0662261 -0.282156 
vn -0.80803 -0.0797313 0.583722 
v -0.404079 -0.362366 -0.148632 
vn -0.857678 -0.500468 -0.117983 
v -0.404079 -0.172192 -0.233426 
vn -0.453828 0.676056 0.580507 
v -0.404079 -0.206228 -0.173726 
vn -0.557117 0.777354 0.292132 
v -0.404079 -0.229732 -0.0921061 
vn -0.707518 0.690845 0.148833 
v -0.404079 -0.386926 -0.00926 
vn -0.707112 -0.695877 -0.125486 
v -0.404079 -0.256754 0.0579941 
vn -0.707109 0.695236 0.129007 
v -0.404079 -0.410082 0.113542 
vn -0.707519 -0.689583 -0.154569 
v -0.404079 -0.28447 0.205162 
vn -0.80048 0.577991 0.158615 
v -0.404079 -0.434118 0.194442 
vn -0.557663 -0.771986 -0.305041 
v -0.404079 -0.468334 0.25 
vn -0.607693 -0.580226 -0.542261 
v -0.404079 -0.513418 0.28216 
vn -0.562734 -0.26801 -0.781985 
v -0.404079 -0.13564 -0.464746 
vn -0.707598 -0.094097 -0.700322 
v -0.404079 -0.0846181 -0.464882 
vn -0.555236 0.0755581 -0.828253 
v -0.404079 -0.110138 -0.466252 
vn -0.316629 -0.0203585 -0.948331 
v -0.404079 -0.0592661 -0.460642 
vn -0.707583 0.142048 -0.692206 
v -0.404079 -0.160984 -0.460374 
vn -0.707582 -0.170826 -0.685672 
v -0.404079 -0.034252 -0.453562 
vn -0.707555 0.216532 -0.672666 
v -0.404079 -0.185988 -0.453162 
vn -0.707556 -0.243742 -0.66329 
v -0.404079 -0.009726 -0.44369 
vn -0.707525 0.286248 -0.64612 
v -0.404079 -0.210478 -0.443158 
vn -0.708878 -0.35626 -0.608745 
v -0.404079 0.01414 -0.431088 
vn -0.707487 0.350307 -0.613797 
v -0.404079 -0.232282 -0.428236 
vn -0.833544 -0.359368 -0.419595 
v -0.404079 0.0372 -0.41584 
vn -0.707453 0.408064 -0.577057 
v -0.404079 -0.269732 -0.388396 
vn -0.801052 -0.460098 -0.382917 
v -0.404079 0.0592881 -0.398048 
vn -0.555038 0.540781 -0.632051 
v -0.404079 0.0802661 -0.377826 
vn -0.606261 0.645585 -0.464401 
v -0.404079 -0.301494 -0.33918 
vn -0.800742 -0.51912 -0.298877 
v -0.404079 0.0895921 -0.358192 
vn -0.554786 0.761858 -0.334343 
v -0.404079 0.0981421 -0.33789 
vn -0.707181 0.659261 -0.255482 
v -0.404079 0.105902 -0.316974 
vn -0.554778 0.787967 -0.267074 
v -0.404079 0.112836 -0.295516 
vn -0.832105 0.531174 -0.159545 
v -0.404079 0.118934 -0.27357 
vn -0.600081 0.774981 -0.198261 
v -0.404079 0.000344001 -0.261444 
vn -0.842313 -0.298087 0.449057 
v -0.404079 0.12417 -0.251196 
vn -0.832102 0.542463 -0.1155 
v -0.404079 0.027012 -0.229808 
vn -0.623962 -0.734024 0.268104 
v -0.404079 0.128534 -0.228466 
vn -0.514568 0.845693 -0.141503 
v -0.404079 0.027012 0.343566 
vn -0.951554 -0.298078 -0.0754674 
v -0.404079 0.13201 -0.205444 
vn -0.708099 0.704132 -0.0528574 
v -0.404079 0.13201 0.284106 
vn -0.502112 0.667078 -0.550355 
v -0.404079 0.770079 0.284106 
vn -0.731872 0.543095 -0.411596 
v -0.404079 0.770079 0.493578 
vn -0.351476 0.928875 0.116858 
v -0.404079 -0.0157 0.42251 
vn -0.565277 -0.779812 -0.268992 
v -0.404079 -0.0157 0.437132 
vn -0.3232 -0.692715 0.644739 
v 0.400969 -0.692465 -0.266476 
vn 0.999085 0.0416231 -0.00981874 
v 0.404079 -0.735017 -0.036222 
vn 0.99737 -0.0723762 0.00391462 
v 0.397677 -0.724117 0.417514 
vn 0.861797 -0.384749 0.330565 
v 0.397677 0.0895921 -0.358192 
vn 0.554786 0.756774 -0.345695 
v 0.397677 0.0802661 -0.377826 
vn 0.836191 0.445214 -0.320264 
v 0.397677 0.0592881 -0.398048 
vn 0.555038 0.559294 -0.61573 
v 0.397677 0.0372 -0.41584 
vn 0.707453 0.425926 -0.564001 
v 0.397677 0.01414 -0.431088 
vn 0.707487 0.370263 -0.601969 
v 0.397677 -0.009726 -0.44369 
vn 0.707525 0.308308 -0.635889 
v 0.397677 -0.034252 -0.453562 
vn 0.707555 0.240366 -0.664522 
v 0.397677 -0.0592661 -0.460642 
vn 0.707583 0.167377 -0.686521 
v 0.397677 -0.0846181 -0.464882 
vn 0.555236 0.106471 -0.824849 
v 0.397677 -0.110138 -0.466252 
vn 0.316629 0.0152804 -0.948426 
v 0.397677 -0.13564 -0.464746 
vn 0.707598 -0.0679055 -0.703345 
v 0.397677 -0.160984 -0.460374 
vn 0.707582 -0.145556 -0.691478 
v 0.397677 -0.185988 -0.453162 
vn 0.707556 -0.219916 -0.671566 
v 0.397677 -0.210478 -0.443158 
vn 0.708878 -0.312164 -0.632491 
v 0.397677 -0.232282 -0.428236 
vn 0.602246 -0.519296 -0.606326 
v 0.397677 -0.269732 -0.388396 
vn 0.801052 -0.482447 -0.354346 
v 0.397677 -0.301494 -0.33918 
vn 0.800742 -0.53364 -0.272106 
v 0.397677 -0.326578 -0.283134 
vn 0.89494 -0.424426 -0.137638 
v 0.397677 -0.362366 -0.148632 
vn 0.857678 -0.503633 -0.103645 
v 0.397677 -0.386926 -0.00926 
vn 0.707112 -0.695372 -0.128256 
v 0.397677 -0.410082 0.113542 
vn 0.707519 -0.683901 -0.178036 
v 0.397677 -0.434118 0.194442 
vn 0.557663 -0.742121 -0.371846 
v 0.397677 -0.468334 0.25 
vn 0.837128 -0.399646 -0.373496 
v 0.397677 -0.513418 0.28216 
vn 0.562734 -0.3791 -0.734584 
v 0.397677 -0.570078 0.29288 
vn 0.715698 -0.0226066 -0.698043 
v 0.397677 -0.641047 0.272418 
vn 0.911814 0.346232 -0.220723 
v 0.397677 -0.669029 0.459062 
vn 0.937526 -0.177416 0.299282 
v 0.397677 -0.609031 0.48501 
vn 0.557742 -0.260726 0.788001 
v 0.397677 -0.548326 0.493658 
vn 0.319734 -0.0297266 0.947041 
v 0.397677 -0.458502 0.47636 
vn 0.714002 0.226207 0.662594 
v 0.397677 -0.384118 0.424456 
vn 0.453883 0.64006 0.619931 
v 0.397677 -0.325876 0.335032 
vn 0.859308 0.471492 0.198204 
v 0.397677 -0.28447 0.205162 
vn 0.80048 0.58399 0.134863 
v 0.397677 -0.256754 0.0579941 
vn 0.707109 0.695579 0.127146 
v 0.397677 -0.229732 -0.0921061 
vn 0.707518 0.685367 0.17231 
v 0.397677 -0.206228 -0.173726 
vn 0.557117 0.751667 0.353012 
v 0.397677 -0.172192 -0.233426 
vn 0.713589 0.531508 0.456389 
v 0.397677 -0.12605 -0.269978 
vn 0.715751 0.343884 0.607819 
v 0.397677 -0.0662261 -0.282156 
vn 0.80803 0.0205768 0.588782 
v 0.397677 0.000344001 -0.261444 
vn 0.61571 -0.435788 0.656499 
v 0.397677 0.027012 -0.229808 
vn 0.84754 -0.498519 0.182085 
v 0.397677 0.027012 0.343566 
vn 0.83987 -0.526185 -0.13322 
v 0.397677 -0.0157 0.42251 
vn 0.565277 -0.813863 -0.134496 
v 0.397677 -0.0157 0.437132 
vn 0.564036 -0.60445 0.562587 
v 0.397677 0.770079 0.493578 
vn 0.436295 0.851751 0.290116 
v 0.0706011 0.770079 0.443026 
vn -0.0385494 0.808096 -0.587788 
v 0.143173 0.770079 0.428776 
vn -0.0983462 0.701886 -0.705467 
v 0.213305 0.770079 0.4053 
vn -0.15392 0.682662 -0.71434 
v 0.279825 0.770079 0.37298 
vn -0.213465 0.656496 -0.723495 
v 0.341625 0.770079 0.332356 
vn -0.277345 0.623799 -0.730722 
v 0.397677 0.770079 0.284106 
vn 0.731874 0.543091 -0.411599 
v -0.003201 0.770079 0.4478 
vn -3.3148e-07 0.651587 -0.758574 
v -0.0770051 0.770079 0.443026 
vn 0.0458081 0.714195 -0.698447 
v -0.149575 0.770079 0.428776 
vn 0.0983468 0.701886 -0.705467 
v -0.219707 0.770079 0.4053 
vn 0.15392 0.682662 -0.71434 
v -0.286227 0.770079 0.37298 
vn 0.213462 0.656496 -0.723497 
v -0.348029 0.770079 0.332356 
vn 0.277345 0.6238 -0.730721 
v -0.359155 0.13201 -0.205444 
vn 0 0.999772 -0.021357 
v -0.338353 0.13201 0.26864 
vn 0.0367608 0.647959 -0.760787 
v 0.397677 0.128534 -0.228466 
vn 0.707169 0.697658 -0.114829 
v 0.311659 0.13201 -0.205444 
vn 0 0.99794 -0.0641593 
v 0.397677 0.13201 -0.205444 
vn 0.708099 0.704132 -0.0528574 
v 0.397677 0.12417 -0.251196 
vn 0.600078 0.782404 -0.166587 
v 0.397677 0.118934 -0.27357 
vn 0.832104 0.537315 -0.13746 
v 0.397677 0.112836 -0.295516 
vn 0.600083 0.766125 -0.230115 
v 0.397677 0.105902 -0.316974 
vn 0.554778 0.784084 -0.278268 
v 0.397677 0.0981421 -0.33789 
vn 0.707181 0.655501 -0.264979 
v 0.403147 -0.722637 -0.14969 
vn 0.999555 0.0288977 -0.00740699 
v 0.403627 -0.727407 0.10452 
vn 0.998459 -0.0545803 0.010023 
v 0.402731 -0.714167 0.160842 
vn 0.999473 0.0310451 0.0095032 
v 0.401391 -0.694637 0.207812 
vn 0.998332 0.0573949 0.00617274 
v 0.397677 0.13201 0.284106 
vn 0.502114 0.667076 -0.550356 
v 0.198841 0.13201 0.246052 
vn -0.0165549 0.696703 -0.717169 
v 0.131691 0.13201 0.238976 
vn -0.00600226 0.710822 -0.703347 
v 0.0643051 0.13201 0.234718 
vn 0.00450557 0.718342 -0.695675 
v -0.0707071 0.13201 0.234718 
vn -0.00450555 0.718342 -0.695675 
v -0.138095 0.13201 0.238976 
vn 0.00600319 0.710822 -0.703347 
v -0.205243 0.13201 0.246052 
vn 0.0165542 0.696703 -0.717169 
v -0.272035 0.13201 0.255946 
vn 0.0269505 0.675782 -0.736609 
v 0.331951 0.13201 0.26864 
vn -0.0367643 0.64796 -0.760786 
v 0.265633 0.13201 0.255946 
vn -0.0225985 0.786119 -0.617662 
v -0.003201 0.13201 0.233306 
vn 0 0.812026 -0.583621 
f 1//1 2//2 3//3 
f 2//2 1//1 4//4 
f 5//5 3//3 2//2 
f 3//3 5//5 6//6 
f 7//7 3//3 8//8 
f 3//3 7//7 1//1 
f 1//1 9//9 4//4 
f 9//9 1//1 7//7 
f 4//4 9//9 10//10 
f 9//9 7//7 11//11 
f 11//11 7//7 12//12 
f 12//12 7//7 13//13 
f 13//13 7//7 14//14 
f 14//14 7//7 15//15 
f 14//14 15//15 16//16 
f 14//14 16//16 17//17 
f 17//17 16//16 18//18 
f 17//17 18//18 19//19 
f 20//20 21//21 22//22 
f 21//21 20//20 23//23 
f 21//21 23//23 24//24 
f 24//24 23//23 25//25 
f 25//25 23//23 26//26 
f 26//26 23//23 27//27 
f 26//26 27//27 28//28 
f 28//28 27//27 29//29 
f 28//28 29//29 30//30 
f 30//30 29//29 31//31 
f 30//30 31//31 32//32 
f 30//30 32//32 13//13 
f 13//13 32//32 33//33 
f 13//13 33//33 12//12 
f 34//34 35//35 36//36 
f 35//35 34//34 37//37 
f 37//37 34//34 38//38 
f 37//37 38//38 39//39 
f 39//39 38//38 40//40 
f 39//39 40//40 41//41 
f 41//41 40//40 42//42 
f 41//41 42//42 43//43 
f 43//43 42//42 44//44 
f 43//43 44//44 45//45 
f 45//45 44//44 46//46 
f 45//45 46//46 47//47 
f 47//47 46//46 48//48 
f 48//48 46//46 49//49 
f 48//48 49//49 50//50 
f 50//50 49//49 51//51 
f 51//51 49//49 20//20 
f 51//51 20//20 52//52 
f 52//52 20//20 53//53 
f 53//53 20//20 22//22 
f 53//53 22//22 54//54 
f 54//54 22//22 55//55 
f 54//54 55//55 56//56 
f 56//56 55//55 57//57 
f 56//56 57//57 58//58 
f 58//58 57//57 59//59 
f 58//58 59//59 60//60 
f 60//60 59//59 61//61 
f 61//61 59//59 62//62 
f 62//62 59//59 63//63 
f 63//63 59//59 64//64 
f 63//63 64//64 65//65 
f 4//4 5//5 2//2 
f 5//5 4//4 10//10 
f 10//10 6//6 5//5 
f 6//6 10//10 9//9 
f 66//66 3//3 6//6 
f 8//8 3//3 67//67 
f 15//15 8//8 68//68 
f 8//8 15//15 7//7 
f 48//48 69//69 70//70 
f 69//69 48//48 50//50 
f 48//48 71//71 47//47 
f 71//71 48//48 70//70 
f 47//47 72//72 45//45 
f 72//72 47//47 71//71 
f 45//45 73//73 43//43 
f 73//73 45//45 72//72 
f 43//43 74//74 41//41 
f 74//74 43//43 73//73 
f 41//41 75//75 39//39 
f 75//75 41//41 74//74 
f 39//39 76//76 37//37 
f 76//76 39//39 75//75 
f 37//37 77//77 35//35 
f 77//77 37//37 76//76 
f 35//35 78//78 36//36 
f 78//78 35//35 77//77 
f 36//36 79//79 34//34 
f 79//79 36//36 78//78 
f 34//34 80//80 38//38 
f 80//80 34//34 79//79 
f 38//38 81//81 40//40 
f 81//81 38//38 80//80 
f 40//40 82//82 42//42 
f 82//82 40//40 81//81 
f 42//42 83//83 44//44 
f 83//83 42//42 82//82 
f 46//46 83//83 84//84 
f 83//83 46//46 44//44 
f 49//49 84//84 85//85 
f 84//84 49//49 46//46 
f 20//20 85//85 86//86 
f 85//85 20//20 49//49 
f 23//23 86//86 87//87 
f 86//86 23//23 20//20 
f 27//27 87//87 88//88 
f 87//87 27//27 23//23 
f 29//29 88//88 89//89 
f 88//88 29//29 27//27 
f 31//31 89//89 90//90 
f 89//89 31//31 29//29 
f 32//32 90//90 91//91 
f 90//90 32//32 31//31 
f 32//32 92//92 33//33 
f 92//92 32//32 91//91 
f 33//33 93//93 12//12 
f 93//93 33//33 92//92 
f 12//12 94//94 11//11 
f 94//94 12//12 93//93 
f 9//9 94//94 6//6 
f 94//94 9//9 11//11 
f 95//95 15//15 68//68 
f 15//15 95//95 16//16 
f 96//96 16//16 95//95 
f 16//16 96//96 18//18 
f 97//97 18//18 96//96 
f 18//18 97//97 19//19 
f 98//98 19//19 97//97 
f 19//19 98//98 17//17 
f 99//99 17//17 98//98 
f 17//17 99//99 14//14 
f 13//13 99//99 100//100 
f 99//99 13//13 14//14 
f 30//30 100//100 101//101 
f 100//100 30//30 13//13 
f 28//28 101//101 102//102 
f 101//101 28//28 30//30 
f 26//26 102//102 103//103 
f 102//102 26//26 28//28 
f 25//25 103//103 104//104 
f 103//103 25//25 26//26 
f 24//24 104//104 105//105 
f 104//104 24//24 25//25 
f 106//106 24//24 105//105 
f 24//24 106//106 21//21 
f 107//107 21//21 106//106 
f 21//21 107//107 22//22 
f 108//108 22//22 107//107 
f 22//22 108//108 55//55 
f 57//57 108//108 109//109 
f 108//108 57//57 55//55 
f 110//110 57//57 109//109 
f 57//57 110//110 59//59 
f 64//64 110//110 111//111 
f 110//110 64//64 59//59 
f 65//65 111//111 112//112 
f 111//111 65//65 64//64 
f 113//113 65//65 112//112 
f 65//65 113//113 63//63 
f 113//113 114//114 63//63 
f 114//114 113//113 115//115 
f 115//115 113//113 116//116 
f 116//116 113//113 117//117 
f 117//117 113//113 118//118 
f 118//118 113//113 119//119 
f 63//63 114//114 120//120 
f 63//63 120//120 121//121 
f 63//63 121//121 122//122 
f 63//63 122//122 123//123 
f 63//63 123//123 124//124 
f 63//63 124//124 125//125 
f 63//63 125//125 62//62 
f 125//125 61//61 62//62 
f 126//126 61//61 127//127 
f 61//61 126//126 60//60 
f 128//128 129//129 130//130 
f 129//129 128//128 58//58 
f 129//129 58//58 126//126 
f 126//126 58//58 60//60 
f 131//131 58//58 128//128 
f 58//58 131//131 56//56 
f 54//54 131//131 132//132 
f 131//131 54//54 56//56 
f 133//133 54//54 132//132 
f 54//54 133//133 53//53 
f 52//52 133//133 134//134 
f 133//133 52//52 53//53 
f 51//51 134//134 135//135 
f 134//134 51//51 52//52 
f 50//50 135//135 69//69 
f 135//135 50//50 51//51 
f 94//94 66//66 6//6 
f 66//66 94//94 136//136 
f 136//136 94//94 67//67 
f 67//67 94//94 137//137 
f 137//137 94//94 138//138 
f 138//138 94//94 139//139 
f 136//136 3//3 66//66 
f 67//67 3//3 136//136 
f 68//68 8//8 67//67 
f 77//77 79//79 78//78 
f 79//79 77//77 76//76 
f 79//79 76//76 80//80 
f 80//80 76//76 75//75 
f 80//80 75//75 81//81 
f 81//81 75//75 74//74 
f 81//81 74//74 82//82 
f 82//82 74//74 73//73 
f 82//82 73//73 83//83 
f 83//83 73//73 72//72 
f 83//83 72//72 84//84 
f 84//84 72//72 71//71 
f 84//84 71//71 70//70 
f 84//84 70//70 85//85 
f 85//85 70//70 69//69 
f 85//85 69//69 135//135 
f 85//85 135//135 86//86 
f 86//86 135//135 134//134 
f 86//86 134//134 133//133 
f 86//86 133//133 107//107 
f 107//107 133//133 132//132 
f 107//107 132//132 108//108 
f 108//108 132//132 131//131 
f 108//108 131//131 109//109 
f 109//109 131//131 128//128 
f 109//109 128//128 110//110 
f 110//110 128//128 130//130 
f 110//110 130//130 140//140 
f 110//110 140//140 119//119 
f 110//110 119//119 113//113 
f 110//110 113//113 111//111 
f 111//111 113//113 112//112 
f 86//86 106//106 87//87 
f 106//106 86//86 107//107 
f 87//87 106//106 105//105 
f 87//87 105//105 104//104 
f 87//87 104//104 103//103 
f 87//87 103//103 88//88 
f 88//88 103//103 102//102 
f 88//88 102//102 89//89 
f 89//89 102//102 101//101 
f 89//89 101//101 90//90 
f 90//90 101//101 91//91 
f 91//91 101//101 100//100 
f 91//91 100//100 92//92 
f 92//92 100//100 93//93 
f 93//93 95//95 94//94 
f 95//95 93//93 100//100 
f 95//95 100//100 99//99 
f 95//95 99//99 98//98 
f 95//95 98//98 96//96 
f 96//96 98//98 97//97 
f 138//138 68//68 137//137 
f 68//68 138//138 95//95 
f 116//116 141//141 115//115 
f 115//115 142//142 114//114 
f 114//114 143//143 120//120 
f 120//120 144//144 121//121 
f 121//121 145//145 122//122 
f 123//123 122//122 146//146 
f 123//123 147//147 124//124 
f 124//124 127//127 125//125 
f 119//119 140//140 118//118 
f 118//118 148//148 117//117 
f 117//117 149//149 116//116 
f 125//125 127//127 61//61 
f 129//129 149//149 148//148 
f 149//149 129//129 126//126 
f 149//149 126//126 141//141 
f 141//141 126//126 142//142 
f 142//142 126//126 143//143 
f 143//143 126//126 150//150 
f 150//150 126//126 144//144 
f 144//144 126//126 145//145 
f 145//145 126//126 146//146 
f 146//146 126//126 147//147 
f 147//147 126//126 127//127 
f 129//129 140//140 130//130 
f 140//140 129//129 148//148 
f 95//95 139//139 94//94 
f 95//95 138//138 139//139 
f 68//68 67//67 137//137 
f 116//116 149//149 141//141 
f 115//115 141//141 142//142 
f 114//114 142//142 143//143 
f 120//120 143//143 150//150 
f 120//120 150//150 144//144 
f 121//121 144//144 145//145 
f 122//122 145//145 146//146 
f 123//123 146//146 147//147 
f 124//124 147//147 127//127 
f 118//118 140//140 148//148 
f 117//117 148//148 149//149 
