v -0.229569 -0.07418 0.428272 
vn 0.333333 -0.666667 0.666667 
v -0.229569 -0.808358 0.253928 
vn 0.57735 -0.57735 -0.57735 
v -0.229569 -0.07418 0.253928 
vn 0.57735 -0.57735 -0.57735 
v -0.229569 -0.808358 0.428272 
vn 0.57735 -0.57735 0.57735 
v -0.403907 -0.808358 0.428272 
vn -0.816497 -0.408248 0.408248 
v -0.403907 -0.808358 0.253928 
vn -0.57735 -0.57735 -0.57735 
v -0.403907 -0.07418 0.253928 
vn -0.727607 -0.485071 -0.485071 
v -0.229569 -0.07418 -0.25393 
vn 0.57735 -0.57735 0.57735 
v -0.403907 -0.07418 -0.25393 
vn -0.904534 -0.301511 0.301511 
v 0.229565 -0.07418 0.253928 
vn -0.408248 -0.816497 -0.408248 
v 0.229565 -0.07418 0.428272 
vn -0.408248 -0.408248 0.816497 
v 0.229565 -0.07418 -0.25393 
vn -0.301511 -0.904534 0.301511 
v 0.229565 -0.07418 -0.428272 
vn -0.408248 -0.408248 -0.816497 
v -0.229569 -0.07418 -0.428272 
vn 0.408248 -0.408248 -0.816497 
v 0.403907 -0.07418 -0.25393 
vn 0.816497 -0.408248 0.408248 
v 0.403907 -0.07418 0.253928 
vn 0.816497 -0.408248 -0.408248 
v 0.403907 0.808358 0.428272 
vn 0.408248 0.408248 0.816497 
v 0.229565 -0.808358 0.428272 
vn -0.57735 -0.57735 0.57735 
v 0.403907 -0.808358 0.428272 
vn 0.816497 -0.408248 0.408248 
v -0.403907 0.808358 0.428272 
vn -0.408248 0.408248 0.816497 
v -0.403907 0.077428 0.306418 
vn -0.942809 0.235702 -0.235702 
v -0.403907 0.808358 0.306418 
vn -0.57735 0.57735 -0.57735 
v -0.403907 -0.808358 -0.25393 
vn -0.57735 -0.57735 0.57735 
v -0.403907 0.077428 -0.428272 
vn -0.557086 0.371391 -0.742781 
v -0.403907 -0.808358 -0.428272 
vn -0.57735 -0.57735 -0.57735 
v -0.229569 -0.808358 -0.25393 
vn 0.57735 -0.57735 0.57735 
v -0.229569 -0.808358 -0.428272 
vn 0.57735 -0.57735 -0.57735 
v 0.403907 -0.808358 -0.428272 
vn 0.57735 -0.57735 -0.57735 
v 0.229565 -0.808358 -0.428272 
vn -0.57735 -0.57735 -0.57735 
v 0.403907 0.077428 -0.428272 
vn 0.666667 0.333333 -0.666667 
v 0.229565 -0.808358 -0.25393 
vn -0.57735 -0.57735 0.57735 
v 0.403907 -0.808358 -0.25393 
vn 0.57735 -0.57735 0.57735 
v 0.403907 0.077428 0.306418 
vn 0.904534 0.301511 -0.301511 
v 0.403907 0.808358 0.306418 
vn 0.57735 0.57735 -0.57735 
v 0.403907 -0.808358 0.253928 
vn 0.57735 -0.57735 -0.57735 
v 0.229565 -0.808358 0.253928 
vn -0.57735 -0.57735 -0.57735 
f 1//1 2//2 3//3 
f 2//2 1//1 4//4 
f 5//5 2//2 4//4 
f 2//2 5//5 6//6 
f 7//7 2//2 6//6 
f 2//2 7//7 3//3 
f 7//7 8//8 3//3 
f 8//8 7//7 9//9 
f 1//1 10//10 11//11 
f 10//10 1//1 12//12 
f 12//12 1//1 13//13 
f 13//13 1//1 14//14 
f 14//14 1//1 3//3 
f 14//14 3//3 8//8 
f 10//10 15//15 16//16 
f 15//15 10//10 12//12 
f 17//17 18//18 19//19 
f 18//18 17//17 11//11 
f 11//11 17//17 1//1 
f 1//1 5//5 4//4 
f 5//5 1//1 20//20 
f 20//20 1//1 17//17 
f 5//5 7//7 6//6 
f 7//7 5//5 21//21 
f 21//21 5//5 22//22 
f 22//22 5//5 20//20 
f 23//23 24//24 25//25 
f 24//24 23//23 9//9 
f 24//24 9//9 21//21 
f 21//21 9//9 7//7 
f 8//8 23//23 26//26 
f 23//23 8//8 9//9 
f 8//8 27//27 14//14 
f 27//27 8//8 26//26 
f 24//24 27//27 25//25 
f 27//27 24//24 14//14 
f 14//14 24//24 13//13 
f 13//13 28//28 29//29 
f 28//28 13//13 30//30 
f 30//30 13//13 24//24 
f 31//31 13//13 29//29 
f 13//13 31//31 12//12 
f 15//15 31//31 32//32 
f 31//31 15//15 12//12 
f 17//17 33//33 34//34 
f 30//30 15//15 28//28 
f 15//15 30//30 33//33 
f 15//15 33//33 16//16 
f 16//16 33//33 35//35 
f 35//35 33//33 19//19 
f 19//19 33//33 17//17 
f 32//32 28//28 15//15 
f 10//10 35//35 36//36 
f 35//35 10//10 16//16 
f 18//18 10//10 36//36 
f 10//10 18//18 11//11 
f 22//22 17//17 34//34 
f 17//17 22//22 20//20 
f 18//18 35//35 19//19 
f 35//35 18//18 36//36 
f 22//22 33//33 21//21 
f 33//33 22//22 34//34 
f 24//24 33//33 30//30 
f 33//33 24//24 21//21 
f 23//23 27//27 26//26 
f 27//27 23//23 25//25 
f 31//31 28//28 32//32 
f 28//28 31//31 29//29 
